<svg xmlns="http://www.w3.org/2000/svg" xmlns:xlink="http://www.w3.org/1999/xlink" width="1024" zoomAndPan="magnify" viewBox="0 0 768 767.999994" height="1024" preserveAspectRatio="xMidYMid meet" version="1.0"><defs><g/><clipPath id="02e96e086f"><path d="M 136 236 L 631.710938 236 L 631.710938 419.957031 L 136 419.957031 Z M 136 236 " clip-rule="nonzero"/></clipPath><clipPath id="f0d16d364e"><path d="M 256 176.207031 L 527 176.207031 L 527 376 L 256 376 Z M 256 176.207031 " clip-rule="nonzero"/></clipPath><clipPath id="69472c3c71"><path d="M 264.992188 358.9375 L 325.453125 269.386719 L 319.507812 302.097656 L 386.101562 226.6875 L 394.566406 263.09375 L 421.117188 302.660156 L 425.695312 287.789062 L 510.503906 375.039062 C 520.628906 355.335938 526.574219 337.636719 526.574219 311.3125 C 526.574219 272.148438 509.914062 236.875 483.292969 212.203125 L 476.722656 206.492188 C 453.46875 187.554688 423.796875 176.203125 391.46875 176.203125 C 316.855469 176.203125 256.363281 236.695312 256.363281 311.3125 C 256.363281 328.074219 259.417969 344.125 264.996094 358.933594 Z M 443.246094 257.835938 C 445.730469 253.945312 450.039062 251.601562 454.65625 251.632812 C 458.632812 251.65625 462.351562 253.4375 464.867188 256.425781 C 468.8125 254.941406 473.21875 255.339844 476.839844 257.5 C 480.457031 259.65625 482.894531 263.347656 483.464844 267.523438 C 481.34375 264.226562 477.972656 261.929688 474.132812 261.15625 C 470.289062 260.378906 466.296875 261.191406 463.058594 263.414062 C 461.324219 259.894531 458.171875 257.277344 454.394531 256.214844 C 450.617188 255.148438 446.5625 255.738281 443.246094 257.835938 Z M 425.613281 271.167969 C 427.34375 269.226562 429.816406 268.105469 432.421875 268.082031 C 435.019531 268.0625 437.511719 269.136719 439.277344 271.054688 C 444.269531 269.363281 449.726562 271.738281 451.890625 276.539062 C 446.464844 272.363281 442.261719 272.171875 439.277344 275.953125 C 436.578125 271.144531 430.722656 269.089844 425.613281 271.167969 Z M 459.132812 280.054688 C 461.382812 276.523438 465.292969 274.398438 469.480469 274.425781 C 473.085938 274.449219 476.460938 276.0625 478.742188 278.773438 C 482.316406 277.429688 486.3125 277.789062 489.597656 279.746094 C 492.878906 281.703125 495.089844 285.050781 495.605469 288.839844 C 493.679688 285.847656 490.625 283.765625 487.140625 283.0625 C 483.65625 282.355469 480.03125 283.097656 477.097656 285.109375 C 475.523438 281.917969 472.667969 279.542969 469.238281 278.578125 C 465.8125 277.613281 462.140625 278.144531 459.128906 280.046875 Z M 459.132812 280.054688 " clip-rule="evenodd"/></clipPath><linearGradient x1="973.727736" gradientTransform="matrix(0.252236, 0, 0, 0.252236, 136.081316, 176.207409)" y1="793.712673" x2="982.49" gradientUnits="userSpaceOnUse" y2="-6.195988" id="cbfb836669"><stop stop-opacity="1" stop-color="rgb(100%, 79.998779%, 16.099548%)" offset="0"/><stop stop-opacity="1" stop-color="rgb(100%, 79.998779%, 16.099548%)" offset="0.0146682"/><stop stop-opacity="1" stop-color="rgb(100%, 79.998779%, 16.099548%)" offset="0.125"/><stop stop-opacity="1" stop-color="rgb(100%, 79.998779%, 16.099548%)" offset="0.15625"/><stop stop-opacity="1" stop-color="rgb(99.983215%, 79.882812%, 16.117859%)" offset="0.171875"/><stop stop-opacity="1" stop-color="rgb(99.94812%, 79.641724%, 16.15448%)" offset="0.179688"/><stop stop-opacity="1" stop-color="rgb(99.913025%, 79.393005%, 16.194153%)" offset="0.1875"/><stop stop-opacity="1" stop-color="rgb(99.87793%, 79.142761%, 16.2323%)" offset="0.195312"/><stop stop-opacity="1" stop-color="rgb(99.841309%, 78.894043%, 16.271973%)" offset="0.203125"/><stop stop-opacity="1" stop-color="rgb(99.806213%, 78.643799%, 16.31012%)" offset="0.210938"/><stop stop-opacity="1" stop-color="rgb(99.771118%, 78.395081%, 16.349792%)" offset="0.21875"/><stop stop-opacity="1" stop-color="rgb(99.736023%, 78.146362%, 16.387939%)" offset="0.226562"/><stop stop-opacity="1" stop-color="rgb(99.700928%, 77.896118%, 16.427612%)" offset="0.234375"/><stop stop-opacity="1" stop-color="rgb(99.665833%, 77.6474%, 16.467285%)" offset="0.242187"/><stop stop-opacity="1" stop-color="rgb(99.629211%, 77.397156%, 16.505432%)" offset="0.25"/><stop stop-opacity="1" stop-color="rgb(99.594116%, 77.148438%, 16.545105%)" offset="0.257812"/><stop stop-opacity="1" stop-color="rgb(99.559021%, 76.899719%, 16.583252%)" offset="0.265625"/><stop stop-opacity="1" stop-color="rgb(99.523926%, 76.649475%, 16.622925%)" offset="0.273438"/><stop stop-opacity="1" stop-color="rgb(99.488831%, 76.400757%, 16.661072%)" offset="0.28125"/><stop stop-opacity="1" stop-color="rgb(99.452209%, 76.150513%, 16.700745%)" offset="0.289062"/><stop stop-opacity="1" stop-color="rgb(99.417114%, 75.901794%, 16.738892%)" offset="0.296875"/><stop stop-opacity="1" stop-color="rgb(99.382019%, 75.653076%, 16.778564%)" offset="0.304688"/><stop stop-opacity="1" stop-color="rgb(99.346924%, 75.402832%, 16.818237%)" offset="0.3125"/><stop stop-opacity="1" stop-color="rgb(99.311829%, 75.154114%, 16.856384%)" offset="0.320313"/><stop stop-opacity="1" stop-color="rgb(99.276733%, 74.90387%, 16.896057%)" offset="0.328125"/><stop stop-opacity="1" stop-color="rgb(99.240112%, 74.655151%, 16.934204%)" offset="0.335938"/><stop stop-opacity="1" stop-color="rgb(99.205017%, 74.406433%, 16.973877%)" offset="0.34375"/><stop stop-opacity="1" stop-color="rgb(99.169922%, 74.156189%, 17.012024%)" offset="0.351562"/><stop stop-opacity="1" stop-color="rgb(99.134827%, 73.907471%, 17.051697%)" offset="0.359375"/><stop stop-opacity="1" stop-color="rgb(99.099731%, 73.657227%, 17.089844%)" offset="0.367188"/><stop stop-opacity="1" stop-color="rgb(99.064636%, 73.408508%, 17.129517%)" offset="0.375"/><stop stop-opacity="1" stop-color="rgb(99.028015%, 73.158264%, 17.167664%)" offset="0.382812"/><stop stop-opacity="1" stop-color="rgb(98.99292%, 72.909546%, 17.207336%)" offset="0.390625"/><stop stop-opacity="1" stop-color="rgb(98.957825%, 72.660828%, 17.247009%)" offset="0.398438"/><stop stop-opacity="1" stop-color="rgb(98.922729%, 72.410583%, 17.285156%)" offset="0.40625"/><stop stop-opacity="1" stop-color="rgb(98.887634%, 72.161865%, 17.324829%)" offset="0.414063"/><stop stop-opacity="1" stop-color="rgb(98.852539%, 71.911621%, 17.362976%)" offset="0.421875"/><stop stop-opacity="1" stop-color="rgb(98.815918%, 71.662903%, 17.402649%)" offset="0.429688"/><stop stop-opacity="1" stop-color="rgb(98.780823%, 71.414185%, 17.440796%)" offset="0.4375"/><stop stop-opacity="1" stop-color="rgb(98.745728%, 71.16394%, 17.480469%)" offset="0.445313"/><stop stop-opacity="1" stop-color="rgb(98.710632%, 70.915222%, 17.518616%)" offset="0.453125"/><stop stop-opacity="1" stop-color="rgb(98.675537%, 70.664978%, 17.558289%)" offset="0.460938"/><stop stop-opacity="1" stop-color="rgb(98.638916%, 70.41626%, 17.597961%)" offset="0.46875"/><stop stop-opacity="1" stop-color="rgb(98.603821%, 70.167542%, 17.636108%)" offset="0.476562"/><stop stop-opacity="1" stop-color="rgb(98.568726%, 69.917297%, 17.675781%)" offset="0.484375"/><stop stop-opacity="1" stop-color="rgb(98.53363%, 69.668579%, 17.713928%)" offset="0.492188"/><stop stop-opacity="1" stop-color="rgb(98.498535%, 69.418335%, 17.753601%)" offset="0.5"/><stop stop-opacity="1" stop-color="rgb(98.46344%, 69.169617%, 17.791748%)" offset="0.507813"/><stop stop-opacity="1" stop-color="rgb(98.426819%, 68.920898%, 17.831421%)" offset="0.515625"/><stop stop-opacity="1" stop-color="rgb(98.391724%, 68.670654%, 17.869568%)" offset="0.523438"/><stop stop-opacity="1" stop-color="rgb(98.356628%, 68.421936%, 17.909241%)" offset="0.53125"/><stop stop-opacity="1" stop-color="rgb(98.321533%, 68.171692%, 17.947388%)" offset="0.539062"/><stop stop-opacity="1" stop-color="rgb(98.286438%, 67.922974%, 17.987061%)" offset="0.546875"/><stop stop-opacity="1" stop-color="rgb(98.251343%, 67.674255%, 18.026733%)" offset="0.554688"/><stop stop-opacity="1" stop-color="rgb(98.214722%, 67.424011%, 18.06488%)" offset="0.5625"/><stop stop-opacity="1" stop-color="rgb(98.179626%, 67.175293%, 18.104553%)" offset="0.570312"/><stop stop-opacity="1" stop-color="rgb(98.144531%, 66.925049%, 18.1427%)" offset="0.578125"/><stop stop-opacity="1" stop-color="rgb(98.109436%, 66.676331%, 18.182373%)" offset="0.585938"/><stop stop-opacity="1" stop-color="rgb(98.074341%, 66.426086%, 18.22052%)" offset="0.59375"/><stop stop-opacity="1" stop-color="rgb(98.039246%, 66.177368%, 18.260193%)" offset="0.601563"/><stop stop-opacity="1" stop-color="rgb(98.002625%, 65.92865%, 18.29834%)" offset="0.609375"/><stop stop-opacity="1" stop-color="rgb(97.967529%, 65.678406%, 18.338013%)" offset="0.617188"/><stop stop-opacity="1" stop-color="rgb(97.932434%, 65.429688%, 18.377686%)" offset="0.625"/><stop stop-opacity="1" stop-color="rgb(97.897339%, 65.179443%, 18.415833%)" offset="0.632812"/><stop stop-opacity="1" stop-color="rgb(97.862244%, 64.930725%, 18.455505%)" offset="0.640625"/><stop stop-opacity="1" stop-color="rgb(97.825623%, 64.682007%, 18.493652%)" offset="0.648438"/><stop stop-opacity="1" stop-color="rgb(97.790527%, 64.431763%, 18.533325%)" offset="0.65625"/><stop stop-opacity="1" stop-color="rgb(97.755432%, 64.183044%, 18.571472%)" offset="0.664063"/><stop stop-opacity="1" stop-color="rgb(97.720337%, 63.9328%, 18.611145%)" offset="0.671875"/><stop stop-opacity="1" stop-color="rgb(97.685242%, 63.684082%, 18.649292%)" offset="0.679688"/><stop stop-opacity="1" stop-color="rgb(97.650146%, 63.435364%, 18.688965%)" offset="0.6875"/><stop stop-opacity="1" stop-color="rgb(97.613525%, 63.18512%, 18.728638%)" offset="0.695312"/><stop stop-opacity="1" stop-color="rgb(97.57843%, 62.936401%, 18.766785%)" offset="0.703125"/><stop stop-opacity="1" stop-color="rgb(97.543335%, 62.686157%, 18.806458%)" offset="0.710938"/><stop stop-opacity="1" stop-color="rgb(97.50824%, 62.437439%, 18.844604%)" offset="0.71875"/><stop stop-opacity="1" stop-color="rgb(97.473145%, 62.188721%, 18.884277%)" offset="0.726562"/><stop stop-opacity="1" stop-color="rgb(97.438049%, 61.938477%, 18.922424%)" offset="0.734375"/><stop stop-opacity="1" stop-color="rgb(97.401428%, 61.689758%, 18.962097%)" offset="0.742188"/><stop stop-opacity="1" stop-color="rgb(97.366333%, 61.439514%, 19.000244%)" offset="0.75"/><stop stop-opacity="1" stop-color="rgb(97.331238%, 61.190796%, 19.039917%)" offset="0.757813"/><stop stop-opacity="1" stop-color="rgb(97.296143%, 60.940552%, 19.078064%)" offset="0.765625"/><stop stop-opacity="1" stop-color="rgb(97.261047%, 60.691833%, 19.117737%)" offset="0.773438"/><stop stop-opacity="1" stop-color="rgb(97.224426%, 60.443115%, 19.15741%)" offset="0.78125"/><stop stop-opacity="1" stop-color="rgb(97.189331%, 60.192871%, 19.195557%)" offset="0.789062"/><stop stop-opacity="1" stop-color="rgb(97.154236%, 59.944153%, 19.235229%)" offset="0.796875"/><stop stop-opacity="1" stop-color="rgb(97.119141%, 59.693909%, 19.273376%)" offset="0.804688"/><stop stop-opacity="1" stop-color="rgb(97.084045%, 59.44519%, 19.313049%)" offset="0.8125"/><stop stop-opacity="1" stop-color="rgb(97.04895%, 59.196472%, 19.351196%)" offset="0.820312"/><stop stop-opacity="1" stop-color="rgb(97.012329%, 58.946228%, 19.390869%)" offset="0.828125"/><stop stop-opacity="1" stop-color="rgb(96.977234%, 58.69751%, 19.429016%)" offset="0.835938"/><stop stop-opacity="1" stop-color="rgb(96.942139%, 58.447266%, 19.468689%)" offset="0.84375"/><stop stop-opacity="1" stop-color="rgb(96.907043%, 58.198547%, 19.508362%)" offset="0.851563"/><stop stop-opacity="1" stop-color="rgb(96.871948%, 57.949829%, 19.546509%)" offset="0.859375"/><stop stop-opacity="1" stop-color="rgb(96.836853%, 57.699585%, 19.586182%)" offset="0.867188"/><stop stop-opacity="1" stop-color="rgb(96.800232%, 57.450867%, 19.624329%)" offset="0.875"/><stop stop-opacity="1" stop-color="rgb(96.765137%, 57.200623%, 19.664001%)" offset="0.882812"/><stop stop-opacity="1" stop-color="rgb(96.730042%, 56.951904%, 19.702148%)" offset="0.890625"/><stop stop-opacity="1" stop-color="rgb(96.694946%, 56.703186%, 19.741821%)" offset="0.898438"/><stop stop-opacity="1" stop-color="rgb(96.659851%, 56.452942%, 19.779968%)" offset="0.90625"/><stop stop-opacity="1" stop-color="rgb(96.624756%, 56.204224%, 19.819641%)" offset="0.914062"/><stop stop-opacity="1" stop-color="rgb(96.588135%, 55.953979%, 19.857788%)" offset="0.921875"/><stop stop-opacity="1" stop-color="rgb(96.55304%, 55.705261%, 19.897461%)" offset="0.929687"/><stop stop-opacity="1" stop-color="rgb(96.517944%, 55.456543%, 19.937134%)" offset="0.9375"/><stop stop-opacity="1" stop-color="rgb(96.482849%, 55.206299%, 19.975281%)" offset="0.945312"/><stop stop-opacity="1" stop-color="rgb(96.447754%, 54.957581%, 20.014954%)" offset="0.953125"/><stop stop-opacity="1" stop-color="rgb(96.411133%, 54.707336%, 20.053101%)" offset="0.960938"/><stop stop-opacity="1" stop-color="rgb(96.376038%, 54.458618%, 20.092773%)" offset="0.96875"/><stop stop-opacity="1" stop-color="rgb(96.340942%, 54.208374%, 20.13092%)" offset="0.976562"/><stop stop-opacity="1" stop-color="rgb(96.305847%, 53.959656%, 20.170593%)" offset="0.984375"/><stop stop-opacity="1" stop-color="rgb(96.270752%, 53.710938%, 20.20874%)" offset="0.985332"/><stop stop-opacity="1" stop-color="rgb(96.253967%, 53.585815%, 20.228577%)" offset="0.992188"/><stop stop-opacity="1" stop-color="rgb(96.235657%, 53.460693%, 20.248413%)" offset="1"/></linearGradient></defs><rect x="-76.8" width="921.6" fill="#ffffff" y="-76.799999" height="921.599993" fill-opacity="1"/><rect x="-76.8" width="921.6" fill="#f1eeee" y="-76.799999" height="921.599993" fill-opacity="1"/><g clip-path="url(#02e96e086f)"><path fill="#1c1c1c" d="M 244.984375 417.210938 L 298.601562 344.976562 L 300.769531 351.839844 L 377.597656 260.460938 L 370.128906 276.34375 L 374.460938 316.800781 L 360.570312 293.367188 L 310.542969 394.269531 L 371.664062 338.664062 L 421.0625 385.078125 L 419.980469 359.066406 L 439.484375 335.585938 L 471.636719 372.433594 L 477.417969 372.433594 L 513.851562 412.761719 L 631.910156 415.371094 L 508.46875 378.914062 L 427.59375 295.714844 L 422.519531 312.210938 L 390.160156 263.988281 L 383.242188 236.195312 L 312.753906 316.015625 L 317.828125 288.097656 L 266.847656 363.605469 L 234.984375 403.632812 C 226.21875 405.226562 150.953125 414.894531 136.078125 419.957031 L 244.980469 417.210938 Z M 244.984375 417.210938 " fill-opacity="1" fill-rule="evenodd"/></g><g clip-path="url(#f0d16d364e)"><g clip-path="url(#69472c3c71)"><path fill="url(#cbfb836669)" d="M 256.363281 176.207031 L 256.363281 375.039062 L 526.574219 375.039062 L 526.574219 176.207031 Z M 256.363281 176.207031 " fill-rule="nonzero"/></g></g><g fill="#1c1c1c" fill-opacity="1"><g transform="translate(44.238648, 504.977081)"><g><path d="M 39.875 -34.09375 L 25.03125 -34.09375 L 25.03125 -42.84375 C 25.03125 -44.082031 24.320312 -44.703125 22.90625 -44.703125 L 19.9375 -44.703125 C 18.519531 -44.703125 17.8125 -44.082031 17.8125 -42.84375 L 17.8125 -11.625 C 17.8125 -10.375 18.519531 -9.75 19.9375 -9.75 L 22.90625 -9.75 C 24.320312 -9.75 25.03125 -10.375 25.03125 -11.625 L 25.03125 -20.015625 L 39.875 -20.015625 L 39.875 -10.515625 C 39.875 -3.503906 35.71875 0 27.40625 0 L 15.4375 0 C 7.125 0 2.96875 -3.503906 2.96875 -10.515625 L 2.96875 -43.9375 C 2.96875 -50.945312 7.125 -54.453125 15.4375 -54.453125 L 27.40625 -54.453125 C 35.71875 -54.453125 39.875 -50.945312 39.875 -43.9375 Z M 39.875 -34.09375 "/></g></g></g><g fill="#1c1c1c" fill-opacity="1"><g transform="translate(86.225621, 504.977081)"><g><path d="M 28.671875 -54.453125 L 43.265625 -54.453125 L 43.265625 0 L 28.671875 0 L 28.671875 -21.546875 L 17.984375 -21.546875 L 17.984375 0 L 3.390625 0 L 3.390625 -54.453125 L 17.984375 -54.453125 L 17.984375 -32.15625 L 28.671875 -32.15625 Z M 28.671875 -54.453125 "/></g></g></g><g fill="#1c1c1c" fill-opacity="1"><g transform="translate(132.877817, 504.977081)"><g><path d="M 3.390625 -54.453125 L 18.234375 -54.453125 L 18.234375 0 L 3.390625 0 Z M 3.390625 -54.453125 "/></g></g></g><g fill="#1c1c1c" fill-opacity="1"><g transform="translate(154.507468, 504.977081)"><g><path d="M 39.875 -34.09375 L 25.03125 -34.09375 L 25.03125 -42.84375 C 25.03125 -44.082031 24.320312 -44.703125 22.90625 -44.703125 L 19.9375 -44.703125 C 18.519531 -44.703125 17.8125 -44.082031 17.8125 -42.84375 L 17.8125 -11.625 C 17.8125 -10.375 18.519531 -9.75 19.9375 -9.75 L 22.90625 -9.75 C 24.320312 -9.75 25.03125 -10.375 25.03125 -11.625 L 25.03125 -20.015625 L 39.875 -20.015625 L 39.875 -10.515625 C 39.875 -3.503906 35.71875 0 27.40625 0 L 15.4375 0 C 7.125 0 2.96875 -3.503906 2.96875 -10.515625 L 2.96875 -43.9375 C 2.96875 -50.945312 7.125 -54.453125 15.4375 -54.453125 L 27.40625 -54.453125 C 35.71875 -54.453125 39.875 -50.945312 39.875 -43.9375 Z M 39.875 -34.09375 "/></g></g></g><g fill="#1c1c1c" fill-opacity="1"><g transform="translate(196.494442, 504.977081)"><g><path d="M 31.125 0 L 29.4375 -8.140625 L 16.375 -8.140625 L 14.59375 0 L 0 0 L 14 -54.453125 L 32.0625 -54.453125 L 46.0625 0 Z M 18.65625 -18.65625 L 27.140625 -18.65625 L 22.984375 -38.25 Z M 18.65625 -18.65625 "/></g></g></g><g fill="#1c1c1c" fill-opacity="1"><g transform="translate(242.552879, 504.977081)"><g><path d="M 39.953125 -35.796875 L 25.109375 -35.796875 L 25.109375 -42.84375 C 25.109375 -44.082031 24.398438 -44.703125 22.984375 -44.703125 L 19.9375 -44.703125 C 18.519531 -44.703125 17.8125 -44.082031 17.8125 -42.84375 L 17.8125 -11.625 C 17.8125 -10.375 18.519531 -9.75 19.9375 -9.75 L 22.984375 -9.75 C 24.398438 -9.75 25.109375 -10.375 25.109375 -11.625 L 25.109375 -20.703125 L 20.875 -20.703125 L 20.875 -30.109375 L 39.953125 -30.109375 L 39.953125 -10.515625 C 39.953125 -3.503906 35.796875 0 27.484375 0 L 15.4375 0 C 7.125 0 2.96875 -3.503906 2.96875 -10.515625 L 2.96875 -43.9375 C 2.96875 -50.945312 7.125 -54.453125 15.4375 -54.453125 L 27.484375 -54.453125 C 35.796875 -54.453125 39.953125 -50.945312 39.953125 -43.9375 Z M 39.953125 -35.796875 "/></g></g></g><g fill="#1c1c1c" fill-opacity="1"><g transform="translate(285.048797, 504.977081)"><g><path d="M 15.609375 -54.453125 L 28.15625 -54.453125 C 36.46875 -54.453125 40.625 -50.945312 40.625 -43.9375 L 40.625 -10.515625 C 40.625 -3.503906 36.46875 0 28.15625 0 L 15.609375 0 C 7.296875 0 3.140625 -3.503906 3.140625 -10.515625 L 3.140625 -43.9375 C 3.140625 -50.945312 7.296875 -54.453125 15.609375 -54.453125 Z M 25.78125 -12.46875 L 25.78125 -41.984375 C 25.78125 -43.234375 25.078125 -43.859375 23.671875 -43.859375 L 20.109375 -43.859375 C 18.691406 -43.859375 17.984375 -43.234375 17.984375 -41.984375 L 17.984375 -12.46875 C 17.984375 -11.226562 18.691406 -10.609375 20.109375 -10.609375 L 23.671875 -10.609375 C 25.078125 -10.609375 25.78125 -11.226562 25.78125 -12.46875 Z M 25.78125 -12.46875 "/></g></g></g><g fill="#1c1c1c" fill-opacity="1"><g transform="translate(328.817055, 504.977081)"><g/></g></g><g fill="#1c1c1c" fill-opacity="1"><g transform="translate(345.781497, 504.977081)"><g><path d="M 18.234375 -10.609375 L 35.125 -10.609375 L 35.125 0 L 3.390625 0 L 3.390625 -54.453125 L 18.234375 -54.453125 Z M 18.234375 -10.609375 "/></g></g></g><g fill="#1c1c1c" fill-opacity="1"><g transform="translate(380.89787, 504.977081)"><g><path d="M 31.125 0 L 29.4375 -8.140625 L 16.375 -8.140625 L 14.59375 0 L 0 0 L 14 -54.453125 L 32.0625 -54.453125 L 46.0625 0 Z M 18.65625 -18.65625 L 27.140625 -18.65625 L 22.984375 -38.25 Z M 18.65625 -18.65625 "/></g></g></g><g fill="#1c1c1c" fill-opacity="1"><g transform="translate(426.956308, 504.977081)"><g><path d="M 33.765625 -27.828125 L 44.453125 0 L 28.5 0 L 18.328125 -27.828125 L 28.421875 -54.453125 L 44.359375 -54.453125 Z M 3.390625 0 L 3.390625 -54.453125 L 18.234375 -54.453125 L 18.234375 0 Z M 3.390625 0 "/></g></g></g><g fill="#1c1c1c" fill-opacity="1"><g transform="translate(471.912056, 504.977081)"><g><path d="M 18.234375 -10.609375 L 36.8125 -10.609375 L 36.8125 0 L 3.390625 0 L 3.390625 -54.453125 L 36.046875 -54.453125 L 36.046875 -43.859375 L 18.234375 -43.859375 L 18.234375 -32.75 L 33.59375 -32.75 L 33.59375 -22.140625 L 18.234375 -22.140625 Z M 18.234375 -10.609375 "/></g></g></g><g fill="#1c1c1c" fill-opacity="1"><g transform="translate(509.997217, 504.977081)"><g><path d="M 24.265625 -12.46875 L 24.265625 -20.1875 C 24.265625 -21.4375 23.554688 -22.0625 22.140625 -22.0625 L 14 -22.0625 C 9.8125 -22.0625 6.851562 -22.976562 5.125 -24.8125 C 3.40625 -26.644531 2.546875 -29.289062 2.546875 -32.75 L 2.546875 -43.9375 C 2.546875 -50.945312 6.675781 -54.453125 14.9375 -54.453125 L 26.546875 -54.453125 C 34.804688 -54.453125 38.9375 -50.945312 38.9375 -43.9375 L 38.9375 -37.40625 L 24.09375 -37.40625 L 24.09375 -41.984375 C 24.09375 -43.234375 23.382812 -43.859375 21.96875 -43.859375 L 19.515625 -43.859375 C 18.097656 -43.859375 17.390625 -43.234375 17.390625 -41.984375 L 17.390625 -33.9375 C 17.390625 -32.6875 18.097656 -32.0625 19.515625 -32.0625 L 27.484375 -32.0625 C 31.671875 -32.0625 34.65625 -31.1875 36.4375 -29.4375 C 38.21875 -27.6875 39.109375 -25.113281 39.109375 -21.71875 L 39.109375 -10.515625 C 39.109375 -3.503906 34.976562 0 26.71875 0 L 15.1875 0 C 6.875 0 2.71875 -3.503906 2.71875 -10.515625 L 2.71875 -17.046875 L 17.5625 -17.046875 L 17.5625 -12.46875 C 17.5625 -11.226562 18.269531 -10.609375 19.6875 -10.609375 L 22.140625 -10.609375 C 23.554688 -10.609375 24.265625 -11.226562 24.265625 -12.46875 Z M 24.265625 -12.46875 "/></g></g></g><g fill="#1c1c1c" fill-opacity="1"><g transform="translate(551.644924, 504.977081)"><g><path d="M 28.671875 -54.453125 L 43.265625 -54.453125 L 43.265625 0 L 28.671875 0 L 28.671875 -21.546875 L 17.984375 -21.546875 L 17.984375 0 L 3.390625 0 L 3.390625 -54.453125 L 17.984375 -54.453125 L 17.984375 -32.15625 L 28.671875 -32.15625 Z M 28.671875 -54.453125 "/></g></g></g><g fill="#1c1c1c" fill-opacity="1"><g transform="translate(598.29712, 504.977081)"><g><path d="M 15.609375 -54.453125 L 28.15625 -54.453125 C 36.46875 -54.453125 40.625 -50.945312 40.625 -43.9375 L 40.625 -10.515625 C 40.625 -3.503906 36.46875 0 28.15625 0 L 15.609375 0 C 7.296875 0 3.140625 -3.503906 3.140625 -10.515625 L 3.140625 -43.9375 C 3.140625 -50.945312 7.296875 -54.453125 15.609375 -54.453125 Z M 25.78125 -12.46875 L 25.78125 -41.984375 C 25.78125 -43.234375 25.078125 -43.859375 23.671875 -43.859375 L 20.109375 -43.859375 C 18.691406 -43.859375 17.984375 -43.234375 17.984375 -41.984375 L 17.984375 -12.46875 C 17.984375 -11.226562 18.691406 -10.609375 20.109375 -10.609375 L 23.671875 -10.609375 C 25.078125 -10.609375 25.78125 -11.226562 25.78125 -12.46875 Z M 25.78125 -12.46875 "/></g></g></g><g fill="#1c1c1c" fill-opacity="1"><g transform="translate(642.065379, 504.977081)"><g><path d="M 18.234375 -19.34375 L 18.234375 0 L 3.390625 0 L 3.390625 -54.453125 L 28.59375 -54.453125 C 36.90625 -54.453125 41.0625 -50.945312 41.0625 -43.9375 L 41.0625 -29.859375 C 41.0625 -24.484375 38.628906 -21.175781 33.765625 -19.9375 L 43.765625 0 L 27.828125 0 L 19.171875 -19.34375 Z M 24.09375 -43.859375 L 18.234375 -43.859375 L 18.234375 -29.4375 L 24.09375 -29.4375 C 25.507812 -29.4375 26.21875 -30.054688 26.21875 -31.296875 L 26.21875 -41.984375 C 26.21875 -43.234375 25.507812 -43.859375 24.09375 -43.859375 Z M 24.09375 -43.859375 "/></g></g></g><g fill="#1c1c1c" fill-opacity="1"><g transform="translate(685.663985, 504.977081)"><g><path d="M 18.234375 -10.609375 L 36.8125 -10.609375 L 36.8125 0 L 3.390625 0 L 3.390625 -54.453125 L 36.046875 -54.453125 L 36.046875 -43.859375 L 18.234375 -43.859375 L 18.234375 -32.75 L 33.59375 -32.75 L 33.59375 -22.140625 L 18.234375 -22.140625 Z M 18.234375 -10.609375 "/></g></g></g><g fill="#ffcc29" fill-opacity="1"><g transform="translate(291.701083, 572.867816)"><g><path d="M 10.25 -10.859375 L 10.25 0 L 1.90625 0 L 1.90625 -30.59375 L 16.0625 -30.59375 C 20.726562 -30.59375 23.0625 -28.625 23.0625 -24.6875 L 23.0625 -16.78125 C 23.0625 -13.757812 21.695312 -11.898438 18.96875 -11.203125 L 24.59375 0 L 15.625 0 L 10.765625 -10.859375 Z M 13.53125 -24.640625 L 10.25 -24.640625 L 10.25 -16.53125 L 13.53125 -16.53125 C 14.320312 -16.53125 14.71875 -16.878906 14.71875 -17.578125 L 14.71875 -23.59375 C 14.71875 -24.289062 14.320312 -24.640625 13.53125 -24.640625 Z M 13.53125 -24.640625 "/></g></g></g><g fill="#ffcc29" fill-opacity="1"><g transform="translate(316.191271, 572.867816)"><g><path d="M 8.765625 -30.59375 L 15.828125 -30.59375 C 20.492188 -30.59375 22.828125 -28.625 22.828125 -24.6875 L 22.828125 -5.90625 C 22.828125 -1.96875 20.492188 0 15.828125 0 L 8.765625 0 C 4.097656 0 1.765625 -1.96875 1.765625 -5.90625 L 1.765625 -24.6875 C 1.765625 -28.625 4.097656 -30.59375 8.765625 -30.59375 Z M 14.484375 -7 L 14.484375 -23.59375 C 14.484375 -24.289062 14.085938 -24.640625 13.296875 -24.640625 L 11.296875 -24.640625 C 10.503906 -24.640625 10.109375 -24.289062 10.109375 -23.59375 L 10.109375 -7 C 10.109375 -6.300781 10.503906 -5.953125 11.296875 -5.953125 L 13.296875 -5.953125 C 14.085938 -5.953125 14.484375 -6.300781 14.484375 -7 Z M 12.203125 -35.453125 L 9.671875 -32.171875 L 2.1875 -32.171875 L 8.53125 -39.3125 L 15.875 -39.3125 L 22.203125 -32.171875 L 14.71875 -32.171875 Z M 12.203125 -35.453125 "/></g></g></g><g fill="#ffcc29" fill-opacity="1"><g transform="translate(340.776738, 572.867816)"><g><path d="M 10.25 -5.953125 L 19.734375 -5.953125 L 19.734375 0 L 1.90625 0 L 1.90625 -30.59375 L 10.25 -30.59375 Z M 10.25 -5.953125 "/></g></g></g><g fill="#ffcc29" fill-opacity="1"><g transform="translate(360.5023, 572.867816)"><g><path d="M 10.25 -5.953125 L 20.6875 -5.953125 L 20.6875 0 L 1.90625 0 L 1.90625 -30.59375 L 20.25 -30.59375 L 20.25 -24.640625 L 10.25 -24.640625 L 10.25 -18.390625 L 18.875 -18.390625 L 18.875 -12.4375 L 10.25 -12.4375 Z M 10.25 -5.953125 "/></g></g></g><g fill="#ffcc29" fill-opacity="1"><g transform="translate(381.895462, 572.867816)"><g><path d="M 1.90625 -30.59375 L 16.0625 -30.59375 C 20.726562 -30.59375 23.0625 -28.625 23.0625 -24.6875 L 23.0625 -15.921875 C 23.0625 -11.984375 20.726562 -10.015625 16.0625 -10.015625 L 10.25 -10.015625 L 10.25 0 L 1.90625 0 Z M 14.71875 -17.015625 L 14.71875 -23.59375 C 14.71875 -24.289062 14.320312 -24.640625 13.53125 -24.640625 L 10.25 -24.640625 L 10.25 -15.96875 L 13.53125 -15.96875 C 14.320312 -15.96875 14.71875 -16.316406 14.71875 -17.015625 Z M 14.71875 -17.015625 "/></g></g></g><g fill="#ffcc29" fill-opacity="1"><g transform="translate(405.909175, 572.867816)"><g><path d="M 10.25 -5.953125 L 19.734375 -5.953125 L 19.734375 0 L 1.90625 0 L 1.90625 -30.59375 L 10.25 -30.59375 Z M 10.25 -5.953125 "/></g></g></g><g fill="#ffcc29" fill-opacity="1"><g transform="translate(425.634737, 572.867816)"><g><path d="M 17.484375 0 L 16.53125 -4.578125 L 9.203125 -4.578125 L 8.203125 0 L 0 0 L 7.859375 -30.59375 L 18.015625 -30.59375 L 25.875 0 Z M 10.484375 -10.484375 L 15.25 -10.484375 L 12.921875 -21.5 Z M 10.484375 -10.484375 "/></g></g></g><g fill="#ffcc29" fill-opacity="1"><g transform="translate(451.50666, 572.867816)"><g><path d="M 16.78125 0 L 8.4375 0 L 8.4375 -9.90625 L 0 -30.59375 L 8.53125 -30.59375 L 12.53125 -17.6875 L 16.25 -30.59375 L 24.734375 -30.59375 L 16.78125 -10.015625 Z M 16.78125 0 "/></g></g></g></svg>